<svg width="13" height="12" viewBox="0 0 13 12" fill="none" xmlns="http://www.w3.org/2000/svg">
<path d="M12.2176 10.4933H11.6982V3.76354H12.4772C13.0355 3.76354 13.2043 3.03531 12.698 2.80931L6.72551 0.0470834C6.58269 -0.0156945 6.4139 -0.0156945 6.27108 0.0470834L0.298623 2.80931C-0.194754 3.03531 -0.0259672 3.76354 0.519344 3.76354H1.29836V10.4933H0.779016C0.350557 10.4933 0 10.8323 0 11.2467C0 11.661 0.350557 12 0.779016 12H12.2046C12.633 12 12.9836 11.661 12.9836 11.2467C12.9836 10.8323 12.633 10.4933 12.2046 10.4933H12.2176ZM4.55725 7.85666H5.15449C5.27134 7.85666 5.37521 7.93199 5.40118 8.04499C5.44013 8.19566 5.49206 8.30866 5.56997 8.39655C5.75174 8.60999 6.06334 8.72299 6.51777 8.72299C6.9722 8.72299 6.99816 8.69788 7.16695 8.6351C7.47856 8.5221 7.64734 8.32121 7.64734 8.03244C7.64734 7.74366 7.56944 7.71855 7.41364 7.63066C7.25784 7.54277 7.01115 7.45488 6.67357 7.37954L6.10229 7.25399C5.53102 7.12843 5.14151 7.00288 4.93377 6.85221C4.57023 6.61365 4.38846 6.23699 4.38846 5.72221C4.38846 5.20743 4.57023 4.86843 4.92079 4.55454C5.18046 4.32854 5.544 4.17787 5.98544 4.11509V3.93931C5.98544 3.72587 6.15423 3.56265 6.37495 3.56265H6.68656C6.90728 3.56265 7.07607 3.72587 7.07607 3.93931V4.1402C7.40065 4.20298 7.68629 4.32854 7.94597 4.51687C8.27056 4.75543 8.47829 5.08187 8.5562 5.49621C8.58216 5.64687 8.46531 5.79754 8.29652 5.79754H7.71226C7.59541 5.79754 7.49154 5.72221 7.46557 5.62176C7.41364 5.39576 7.27082 5.23254 7.06308 5.13209C6.88131 5.04421 6.66059 5.00654 6.40092 5.00654C6.14125 5.00654 5.88157 5.06932 5.6998 5.18232C5.53102 5.29532 5.44013 5.45854 5.44013 5.65943C5.44013 5.86032 5.53102 5.98587 5.6998 6.07376C5.81666 6.13654 6.05036 6.21188 6.40092 6.28721L7.33574 6.50065C7.75121 6.6011 8.04984 6.72665 8.25757 6.87732C8.58216 7.12843 8.73797 7.47999 8.73797 7.94455C8.73797 8.4091 8.54321 8.82344 8.16669 9.13733C7.88105 9.37588 7.51751 9.51399 7.06308 9.57677V9.70233C7.06308 9.91577 6.89429 10.079 6.67357 10.079H6.36197C6.14125 10.079 5.97246 9.91577 5.97246 9.70233V9.55166C5.544 9.48888 5.18046 9.35077 4.89482 9.12477C4.57023 8.87366 4.37547 8.53466 4.31056 8.13288C4.28459 7.98221 4.40144 7.8441 4.57023 7.8441L4.55725 7.85666Z" fill="#83D8D6" fill-opacity="0.3"/>
</svg>
