<svg width="21" height="21" viewBox="0 0 21 21" fill="none" xmlns="http://www.w3.org/2000/svg">
<path d="M9.1747 13.2172C10.1148 13.4655 12.1695 14.0082 12.4962 12.6955C12.8309 11.3534 10.8386 10.9063 9.86615 10.688C9.7574 10.6636 9.6614 10.6421 9.58284 10.6225L8.95013 13.1589C9.01459 13.1749 9.09014 13.1948 9.1747 13.2172Z" fill="#F7931A"/>
<path d="M10.0612 9.51085C10.845 9.72003 12.5548 10.1763 12.8526 8.98326C13.1566 7.76304 11.4951 7.39516 10.6835 7.21548C10.5922 7.19527 10.5117 7.17743 10.4459 7.16104L9.8723 9.46139C9.92646 9.47489 9.99001 9.49185 10.0612 9.51085Z" fill="#F7931A"/>
<path fill-rule="evenodd" clip-rule="evenodd" d="M7.95815 20.6856C13.5839 22.0884 19.2811 18.6651 20.6834 13.04C22.086 7.41469 18.6628 1.71655 13.0374 0.314196C7.41346 -1.08815 1.71619 2.3354 0.31446 7.96107C-1.08851 13.5857 2.33479 19.2833 7.95815 20.6856ZM12.8192 6.3545C14.2739 6.85557 15.3377 7.60668 15.1288 9.004C14.9776 10.0269 14.4109 10.5222 13.658 10.6958C14.6917 11.234 15.2177 12.0593 14.7166 13.49C14.0948 15.2672 12.6175 15.4171 10.6527 15.0452L10.176 16.9561L9.02372 16.669L9.49431 14.7838C9.19561 14.7096 8.89049 14.6309 8.57609 14.5455L8.10391 16.4397L6.95305 16.1526L7.42984 14.2381C7.31909 14.2098 7.20763 14.1807 7.09537 14.1514C6.93478 14.1096 6.77254 14.0673 6.60836 14.0261L5.10896 13.6523L5.681 12.3334C5.681 12.3334 6.52999 12.5591 6.51844 12.5424C6.84465 12.6232 6.98938 12.4105 7.0464 12.2687L7.79988 9.24799C7.83023 9.25526 7.85979 9.26265 7.88823 9.26977C7.89956 9.27261 7.91071 9.2754 7.92166 9.27812C7.87568 9.25964 7.83401 9.24784 7.80188 9.23967L8.33943 7.08334C8.35345 6.83853 8.26907 6.52966 7.80249 6.41321C7.82051 6.40115 6.96567 6.2052 6.96567 6.2052L7.27217 4.97458L8.86108 5.37135L8.85975 5.37731C9.09861 5.43674 9.3448 5.49314 9.59546 5.55022L10.0676 3.65804L11.2191 3.94514L10.7564 5.80026C11.0656 5.87083 11.3766 5.94202 11.6795 6.01756L12.1389 4.1746L13.2911 4.4617L12.8192 6.3545Z" fill="#F7931A"/>
</svg>
