<svg width="7" height="10" viewBox="0 0 7 10" fill="none" xmlns="http://www.w3.org/2000/svg">
<path d="M5.48286 5.98765L2.12347 8.93808C1.98634 9.0578 1.80084 9.125 1.60748 9.125C1.41412 9.125 1.22862 9.0578 1.09149 8.93808C1.02289 8.87832 0.968445 8.80723 0.931288 8.7289C0.894131 8.65057 0.875 8.56655 0.875 8.4817C0.875 8.39684 0.894131 8.31282 0.931288 8.23449C0.968445 8.15616 1.02289 8.08507 1.09149 8.02531L4.45821 5.08131C4.52681 5.02155 4.58126 4.95046 4.61842 4.87213C4.65557 4.7938 4.6747 4.70978 4.6747 4.62493C4.6747 4.54007 4.65557 4.45605 4.61842 4.37772C4.58126 4.29939 4.52681 4.2283 4.45821 4.16854L1.09149 1.22454C0.953675 1.10435 0.875864 0.941005 0.875177 0.77043C0.874491 0.599855 0.950986 0.436028 1.08783 0.314986C1.22468 0.193946 1.41067 0.125607 1.60489 0.125004C1.79911 0.124401 1.98565 0.191585 2.12347 0.311773L5.48286 3.2622C5.89404 3.62377 6.125 4.1139 6.125 4.62493C6.125 5.13595 5.89404 5.62608 5.48286 5.98765Z" fill="currentColor" />
</svg>
