<svg width="15" height="15" viewBox="0 0 15 15" fill="none" xmlns="http://www.w3.org/2000/svg">
<path opacity="0.5" d="M11.7857 0H4.99457C3.69429 0 2.63743 1.05686 2.63743 2.35714V2.57143H2.35714C1.05686 2.57143 0 3.62829 0 4.92857V12.6429C0 13.9431 1.05686 15 2.35714 15H10.0714C11.1471 15 12.0463 14.2723 12.3283 13.2857H12.6429C13.9431 13.2857 15 12.2289 15 10.9286V3.21429C15 1.44257 13.5574 0 11.7857 0ZM10.0714 13.7143H2.35714C1.76657 13.7143 1.28571 13.2334 1.28571 12.6429V4.92857C1.28571 4.338 1.76657 3.85714 2.35714 3.85714H10.0714C10.662 3.85714 11.1429 4.338 11.1429 4.92857V12.6429C11.1429 13.2334 10.662 13.7143 10.0714 13.7143ZM13.7143 10.9286C13.7143 11.5191 13.2334 12 12.6429 12H12.4286V4.92857C12.4286 3.62829 11.3717 2.57143 10.0714 2.57143H3.92314V2.35714C3.92314 1.76657 4.404 1.28571 4.99457 1.28571H11.7857C12.8486 1.28571 13.7143 2.15143 13.7143 3.21429V10.9286Z" fill="#83D8D6"/>
</svg>
