<svg width="12" height="14" viewBox="0 0 12 14" fill="none" xmlns="http://www.w3.org/2000/svg">
<path d="M11.1064 8.65615V5.32913C11.617 5.18191 12 4.69611 12 4.12198C12 3.43007 11.461 2.87066 10.7943 2.87066C10.4681 2.87066 10.156 3.00315 9.94326 3.2387L7.16312 1.57518C7.19149 1.47213 7.20567 1.36909 7.20567 1.25131C7.20567 0.559411 6.66667 0 6 0C5.33333 0 4.79433 0.559411 4.79433 1.25131C4.79433 1.36909 4.80851 1.47213 4.83688 1.57518L2.05674 3.2387C1.84397 3.01788 1.53191 2.87066 1.20567 2.87066C0.539007 2.87066 0 3.43007 0 4.12198C0 4.69611 0.382979 5.18191 0.893617 5.32913V8.67087C0.382979 8.81809 0 9.30389 0 9.87802C0 10.5699 0.539007 11.1293 1.20567 11.1293C1.53191 11.1293 1.84397 10.9968 2.05674 10.7613L4.83688 12.4248C4.80851 12.5279 4.79433 12.6309 4.79433 12.7487C4.79433 13.4406 5.33333 14 6 14C6.66667 14 7.20567 13.4406 7.20567 12.7487C7.20567 12.6309 7.19149 12.5279 7.16312 12.4248L9.94326 10.7613C10.156 10.9821 10.4681 11.1293 10.7943 11.1293C11.461 11.1293 12 10.5699 12 9.87802C12 9.28917 11.617 8.80336 11.1064 8.65615ZM9.94326 8.98002L8.14184 7.90536V6.07992L9.94326 5.00526C10.0851 5.15247 10.2695 5.27024 10.4823 5.32913V8.67087C10.2695 8.71504 10.0851 8.83281 9.94326 8.98002ZM9.6312 4.43112L7.8156 5.5205L6.31206 4.6225V2.45846C6.51064 2.39958 6.69503 2.29653 6.85106 2.14932L9.6312 3.81283C9.60284 3.91588 9.58865 4.01893 9.58865 4.1367C9.58865 4.22503 9.60284 4.3428 9.6312 4.43112ZM5.68794 2.45846V4.6225L4.1844 5.5205L2.36879 4.43112C2.39716 4.32808 2.41135 4.22503 2.41135 4.12198C2.41135 4.00421 2.39716 3.90116 2.36879 3.79811L5.14894 2.1346C5.29078 2.29653 5.47518 2.39958 5.68794 2.45846ZM2.07092 5.00526L3.87234 6.07992V7.87592L2.05674 8.9653C1.91489 8.81809 1.7305 8.71504 1.5461 8.67087V5.32913C1.7305 5.27024 1.91489 5.15247 2.07092 5.00526ZM2.36879 9.52471L4.15603 8.45005L5.65957 9.34805V11.5268C5.47518 11.6004 5.29078 11.7035 5.14894 11.8507L2.36879 10.1872C2.39716 10.0841 2.41135 9.98107 2.41135 9.8633C2.41135 9.74553 2.39716 9.62776 2.36879 9.52471ZM6.29787 11.5268V9.3775L7.8156 8.46477L9.6312 9.55415C9.60284 9.6572 9.58865 9.76025 9.58865 9.8633C9.58865 9.98107 9.60284 10.0841 9.6312 10.1872L6.85106 11.8507C6.69503 11.6887 6.51064 11.5857 6.29787 11.5268Z" fill="#83D8D6" fill-opacity="0.3"/>
</svg>
