<svg width="18" height="21" viewBox="0 0 18 21" fill="none" xmlns="http://www.w3.org/2000/svg">
<path d="M15.4448 14.2664C14.7917 14.5874 10.7874 17.3554 8.989 17.5744C7.19134 17.7933 5.96563 16.9922 5.96563 16.9922C5.96563 16.9922 7.68218 16.3509 9.07081 16.2706C10.4601 16.1904 11.6851 15.549 11.5222 14.8275C11.3586 14.1059 10.1329 14.0304 8.74358 14.1487C7.35426 14.2664 5.12122 14.0793 4.52154 14.0793C3.62236 14.0787 1.96127 14.5609 0 16.1904V21C0 21 6.45578 21 7.76329 21C9.07081 21 16.0167 16.5107 16.5887 15.3885C17.1606 14.2664 16.0985 13.9454 15.4448 14.2664Z" fill="#83D8D6" />
<path d="M8.37684 0C8.37684 0 4.44944 2.87205 8.37684 7.26819C12.3035 2.87205 8.37684 0 8.37684 0Z" fill="#83D8D6" />
<path d="M8.07041 11.1366C7.57888 3.82962 1.50787 4.6981 1.50787 4.6981C1.50787 4.6981 0.621868 10.6544 8.07041 11.1366Z" fill="#83D8D6" />
<path d="M14.5061 6.82748C14.5061 6.82748 11.9722 10.3728 9.89927 12.0343C19.0602 11.2263 17.9586 3.77385 17.9586 3.77385C17.9586 3.77385 10.883 2.76731 9.64692 10.7741C10.7541 9.33364 12.3777 7.70549 14.5061 6.82748Z" fill="#83D8D6" />
</svg>
