<svg width="16" height="16" viewBox="0 0 16 16" fill="none" xmlns="http://www.w3.org/2000/svg">
<path fill-rule="evenodd" clip-rule="evenodd" d="M0.875703 11.5855C0.319101 10.5091 0 9.29455 0 8.00002C0 6.70545 0.319101 5.49092 0.875703 4.41454C2.21891 1.79638 4.97217 0 8.16328 0C10.3674 0 12.2078 0.79272 13.6253 2.08729L11.2876 4.3782C10.4341 3.59273 9.36548 3.18544 8.16328 3.18544C6.04083 3.18544 4.23748 4.5891 3.59184 6.48001C3.42858 6.96001 3.33209 7.46908 3.33209 8.00002C3.33209 8.53092 3.42858 9.04002 3.59184 9.52002L3.58218 9.52727H3.59184C4.23748 11.4182 6.04083 12.8218 8.16328 12.8218C9.26159 12.8218 10.1892 12.5309 10.9165 12.0509C11.7848 11.4836 12.3636 10.64 12.5566 9.64364H8.16328V6.54545H15.8516C15.9481 7.06911 16 7.61455 16 8.18183C16 10.6182 15.1095 12.6691 13.5659 14.0655C12.2152 15.2873 10.3674 16 8.16328 16C4.97217 16 2.21891 14.2037 0.875703 11.5927V11.5855Z" fill="#83D8D6" fill-opacity="0.5"/>
</svg>
