<svg width="18" height="23" viewBox="0 0 18 23" fill="none" xmlns="http://www.w3.org/2000/svg">
<path d="M17.9999 5.95603V16.5117C17.9999 20.0949 15.2457 23 11.8486 23H10.6095C8.77334 23 7.09761 22.0562 6.06477 20.4333L5.99573 20.3369C5.69717 19.8773 5.39861 19.3931 5.05433 18.9326L0.18963 12.3714C-0.0632101 12.0329 -0.0632101 11.5723 0.18963 11.2338C0.442471 10.8952 0.786752 10.7014 1.17675 10.6531C1.56676 10.6049 1.95676 10.7496 2.25532 11.0163L4.91822 13.5335C5.07871 13.6792 5.28582 13.7028 5.4687 13.63C5.6525 13.5335 5.76726 13.3633 5.76726 13.1458L5.76637 3.5585C5.76637 2.88045 6.27113 2.34805 6.91397 2.34805C7.55682 2.34805 8.06158 2.88045 8.06158 3.5585V10.4828C8.06158 10.7731 8.2911 11.0152 8.56634 11.0152C8.84158 11.0152 9.0711 10.7731 9.0711 10.4828L9.072 1.21046C9.072 0.532408 9.57676 0 10.2196 0C10.8624 0 11.3672 0.532408 11.3672 1.21046V9.99862C11.3672 10.2889 11.5967 10.531 11.872 10.531C12.1472 10.531 12.3767 10.2889 12.3767 9.99862V3.07432C12.3767 2.39627 12.8815 1.86386 13.5243 1.86386C14.1672 1.86386 14.6719 2.39627 14.6719 3.07432V11.6439C14.6719 11.9342 14.9015 12.1763 15.1767 12.1763C15.4519 12.1763 15.6815 11.9342 15.6815 11.6439L15.6824 5.95569C15.6824 5.27764 16.1871 4.74524 16.83 4.74524C17.4719 4.74524 18 5.27764 18 5.95569L17.9999 5.95603Z" fill="#83D8D6" fill-opacity="0.5"/>
</svg>
