<svg width="113" height="27" viewBox="0 0 169 41" fill="none" xmlns="http://www.w3.org/2000/svg">
<path d="M13.5312 31.6263L0.268555 23.4009V32.1364L13.5312 40.043L26.9851 32.1364V22.9546L20.29 18.8738V27.7368L13.5312 31.6263Z" fill="#6AA2A2"/>
<path d="M13.7225 8.41665L26.9851 16.642V7.90655L13.7225 -2.09808e-05L0.268545 7.90655V17.0884L6.96363 21.1692V12.3062L13.7225 8.41665Z" fill="#7EB5B5"/>
<circle cx="13.2762" cy="20.6591" r="2.67803" fill="#87B3BC"/>
<path d="M42.7939 28.0872C40.3058 28.0872 37.865 27.2118 36.6328 25.9342L37.32 24.5856C38.5048 25.7449 40.6138 26.5967 42.7939 26.5967C45.8982 26.5967 47.2489 25.2954 47.2489 23.6629C47.2489 19.1202 37.0357 21.9121 37.0357 15.7842C37.0357 13.3472 38.9314 11.2415 43.1494 11.2415C45.0214 11.2415 46.9645 11.7857 48.2916 12.7084L47.6991 14.1043C46.2773 13.1816 44.6186 12.7321 43.1494 12.7321C40.1162 12.7321 38.7655 14.0807 38.7655 15.7369C38.7655 20.2795 48.9788 17.535 48.9788 23.5682C48.9788 26.0052 47.0356 28.0872 42.7939 28.0872Z" fill="#7FB4B4"/>
<path d="M57.6099 28.0636C53.8895 28.0636 51.1881 25.4374 51.1881 21.7228C51.1881 18.0082 53.8895 15.4056 57.6099 15.4056C59.7189 15.4056 61.4961 16.2337 62.4914 17.8662L61.2355 18.718C60.3824 17.464 59.0554 16.8725 57.6099 16.8725C54.8848 16.8725 52.8943 18.8126 52.8943 21.7228C52.8943 24.6566 54.8848 26.573 57.6099 26.573C59.0554 26.573 60.3824 26.0052 61.2355 24.7512L62.4914 25.603C61.4961 27.2118 59.7189 28.0636 57.6099 28.0636Z" fill="#7FB4B4"/>
<path d="M71.9621 15.4056C74.9953 15.4056 77.0806 17.1565 77.0806 20.7291V27.9453H75.3981V20.8947C75.3981 18.2685 74.0237 16.9199 71.654 16.9199C68.9763 16.9199 67.2938 18.576 67.2938 21.4152V27.9453H65.6114V10.3898H67.2938V17.677C68.218 16.2337 69.8531 15.4056 71.9621 15.4056Z" fill="#7FB4B4"/>
<path d="M92.5713 21.7228C92.5713 21.8647 92.5476 22.054 92.5476 22.2433H82.1211C82.3107 24.8459 84.3012 26.573 87.0263 26.573C88.5429 26.573 89.8936 26.0288 90.8415 24.9405L91.7893 26.0288C90.6756 27.3538 88.9457 28.0636 86.9789 28.0636C83.0927 28.0636 80.4386 25.4137 80.4386 21.7228C80.4386 18.0319 83.0216 15.4056 86.5287 15.4056C90.0358 15.4056 92.5713 17.9845 92.5713 21.7228ZM86.5287 16.8489C84.1116 16.8489 82.3344 18.5524 82.1211 20.9893H90.9599C90.7467 18.5524 88.9694 16.8489 86.5287 16.8489Z" fill="#7FB4B4"/>
<path d="M95.9958 27.9453V10.3898H97.6783V27.9453H95.9958Z" fill="#7FB4B4"/>
<path d="M102.36 27.9453V10.3898H104.042V27.9453H102.36Z" fill="#7FB4B4"/>
<path d="M109.577 12.7794C108.889 12.7794 108.344 12.2352 108.344 11.5728C108.344 10.9339 108.889 10.3898 109.577 10.3898C110.264 10.3898 110.809 10.9103 110.809 11.5491C110.809 12.2352 110.288 12.7794 109.577 12.7794ZM108.724 27.9453V15.5003H110.406V27.9453H108.724Z" fill="#7FB4B4"/>
<path d="M121.438 15.4056C124.471 15.4056 126.557 17.1565 126.557 20.7291V27.9453H124.874V20.8947C124.874 18.2685 123.5 16.9199 121.13 16.9199C118.452 16.9199 116.77 18.576 116.77 21.4152V27.9453H115.087V15.5003H116.699V17.7953C117.599 16.281 119.282 15.4056 121.438 15.4056Z" fill="#7FB4B4"/>
<path d="M141.099 15.5003H142.711V26.4311C142.711 30.7135 140.602 32.6536 136.479 32.6536C134.204 32.6536 131.976 31.9674 130.673 30.7371L131.526 29.4595C132.711 30.5242 134.512 31.163 136.431 31.163C139.583 31.163 141.028 29.7198 141.028 26.644V25.0588C139.986 26.644 138.208 27.4721 136.171 27.4721C132.616 27.4721 129.915 24.9878 129.915 21.4152C129.915 17.8426 132.616 15.4056 136.171 15.4056C138.256 15.4056 140.057 16.2574 141.099 17.8899V15.5003ZM136.336 25.9815C139.085 25.9815 141.076 24.1124 141.076 21.4152C141.076 18.718 139.085 16.8725 136.336 16.8725C133.588 16.8725 131.621 18.718 131.621 21.4152C131.621 24.1124 133.588 25.9815 136.336 25.9815Z" fill="#7FB4B4"/>
<path d="M147.582 28.0636C146.894 28.0636 146.326 27.4958 146.326 26.7623C146.326 26.0289 146.894 25.4847 147.582 25.4847C148.269 25.4847 148.861 26.0289 148.861 26.7623C148.861 27.4958 148.269 28.0636 147.582 28.0636Z" fill="#7FB4B4"/>
<path d="M157.029 15.4056C160.252 15.4056 162.076 17.0145 162.076 20.2322V27.9453H160.465V26.0052C159.707 27.2828 158.237 28.0636 156.176 28.0636C153.356 28.0636 151.626 26.5967 151.626 24.4436C151.626 22.5272 152.858 20.9183 156.437 20.9183H160.394V20.1612C160.394 18.0319 159.185 16.8725 156.863 16.8725C155.252 16.8725 153.735 17.4404 152.716 18.3394L151.958 17.0855C153.214 16.0208 155.062 15.4056 157.029 15.4056ZM156.437 26.7386C158.332 26.7386 159.73 25.8396 160.394 24.2071V22.1723H156.484C154.067 22.1723 153.285 23.1187 153.285 24.3963C153.285 25.8396 154.446 26.7386 156.437 26.7386Z" fill="#7FB4B4"/>
<path d="M167.499 12.7794C166.812 12.7794 166.267 12.2352 166.267 11.5728C166.267 10.9339 166.812 10.3898 167.499 10.3898C168.186 10.3898 168.731 10.9103 168.731 11.5491C168.731 12.2352 168.21 12.7794 167.499 12.7794ZM166.646 27.9453V15.5003H168.329V27.9453H166.646Z" fill="#7FB4B4"/>
</svg>
