<svg width="21" height="21" viewBox="0 0 21 21" fill="none" xmlns="http://www.w3.org/2000/svg">
<g clip-path="url(#clip0_69_521)">
<path fill-rule="evenodd" clip-rule="evenodd" d="M10.5 21C16.3188 21 21 16.3188 21 10.5C21 4.68122 16.3188 0 10.5 0C4.68122 0 0 4.68122 0 10.5C0 16.3188 4.68122 21 10.5 21ZM13.3876 12.1625C13.3876 10.6313 12.4689 10.1063 10.6314 9.8876C9.31886 9.71256 9.05636 9.36259 9.05636 8.75002C9.05636 8.13745 9.4939 7.74381 10.3689 7.74381C11.1564 7.74381 11.5939 8.00631 11.8126 8.66256C11.8564 8.79381 11.9876 8.88128 12.1189 8.88128H12.8188C12.9939 8.88128 13.1251 8.75002 13.1251 8.57509V8.53131C12.9501 7.56877 12.1626 6.82506 11.1564 6.73759V5.68759C11.1564 5.51256 11.0251 5.38131 10.8064 5.33752H10.1501C9.97511 5.33752 9.84386 5.46877 9.80008 5.68759V6.69381C8.48758 6.86884 7.6564 7.74381 7.6564 8.83759C7.6564 10.2813 8.53136 10.85 10.3689 11.0688C11.5939 11.2876 11.9876 11.5501 11.9876 12.2501C11.9876 12.9501 11.3751 13.4313 10.5439 13.4313C9.40633 13.4313 9.01258 12.95 8.88133 12.2938C8.83765 12.1188 8.7064 12.0313 8.57515 12.0313H7.83133C7.6564 12.0313 7.52515 12.1625 7.52515 12.3376V12.3813C7.70008 13.475 8.40011 14.2625 9.84386 14.4813V15.5313C9.84386 15.7063 9.97511 15.8375 10.1938 15.8813H10.8501C11.0251 15.8813 11.1564 15.7501 11.2001 15.5313V14.4813C12.5126 14.2625 13.3876 13.3438 13.3876 12.1625ZM4.37516 8.35618C3.10634 11.725 4.85637 15.5312 8.26887 16.7562C8.40012 16.8437 8.53137 17.0187 8.53137 17.1499V17.7625C8.53137 17.85 8.53137 17.8937 8.48759 17.9374C8.44391 18.1125 8.26887 18.1999 8.09384 18.1125C5.64387 17.325 3.76259 15.4437 2.97509 12.9937C1.66259 8.8375 3.93762 4.41868 8.09384 3.10618C8.13762 3.0625 8.22509 3.0625 8.26887 3.0625C8.44391 3.10618 8.53137 3.23743 8.53137 3.41246V4.02493C8.53137 4.24375 8.44391 4.375 8.26887 4.46246C6.47516 5.11871 5.03141 6.51868 4.37516 8.35618ZM12.5127 3.28121C12.5563 3.10618 12.7314 3.01871 12.9064 3.10618C15.3126 3.89368 17.2377 5.77496 18.0252 8.26871C19.3377 12.4249 17.0626 16.8438 12.9064 18.1562C12.8626 18.1999 12.7752 18.1999 12.7314 18.1999C12.5563 18.1562 12.4689 18.025 12.4689 17.85V17.2375C12.4689 17.0187 12.5563 16.8874 12.7314 16.8C14.5251 16.1437 15.9688 14.7437 16.6251 12.9062C17.8939 9.53743 16.1439 5.73118 12.7314 4.50625C12.6001 4.41868 12.4689 4.24375 12.4689 4.06871V3.45625C12.4689 3.36868 12.4689 3.325 12.5127 3.28121Z" fill="#2775CA"/>
</g>
<defs>
<clipPath id="clip0_69_521">
<rect width="21" height="21" fill="white"/>
</clipPath>
</defs>
</svg>
